# xmcd
#
# Track frame offsets:
#	150
#	16189
#	31901
#	47738
#	68196
#	82141
#	96461
#	111386
#	127317
#	143912
#	161937
#	177374
#	190594
#	207186
#	224702
#	248065
#	262468
#	279934
#	295244
#
# Disc length: 4113 seconds
#
# Revision: 1
# Processed by: cddbd v1.5.2PL0 Copyright (c) Steve Scherf et al.
# Submitted via: audiograbber 1.83.01
#
DISCID=34100f13
DTITLE=Various Artist - Hott Country 180
DYEAR=2011
DGENRE=Country
TTITLE0=High Valley - A Father's Love ( The Only Way We Know How )
TTITLE1=Reba McEntire - If I Were A Boy
TTITLE2=Ronnie Dunne - Bleed Red
TTITLE3=Zac Brown Band - Colder Weather
TTITLE4=C Ford and Gord Bamford - Chicken and Biscuits
TTITLE5=Trace Adkins - Brown Chicken Brown Cow
TTITLE6=Lady Antebellum - Perfect Day
TTITLE7=Band Perry - You Lie
TTITLE8=Sean Hogan - Travel Plans
TTITLE9=Randy Montana - 1000 Faces
TTITLE10=Jason McCoy - She's Good For You
TTITLE11=Ashton Shepherd - Look It Up
TTITLE12=Jason Kirkness - Run Me Away
TTITLE13=Ridley Bent - Livin' With Her Ex
TTITLE14=Jamey Johnson - Heartache
TTITLE15=Jaydee Bixby - Dream Bigger
TTITLE16=Johnny Reid - Hands Of A Working Man
TTITLE17=Carter's Chord - A Little Less Comfortable
TTITLE18=Glen Campbell - Southern Nights (1971)
EXTD=Feburary 2011
EXTT0=
EXTT1=
EXTT2=
EXTT3=
EXTT4=
EXTT5=
EXTT6=
EXTT7=
EXTT8=
EXTT9=
EXTT10=
EXTT11=
EXTT12=
EXTT13=
EXTT14=
EXTT15=
EXTT16=
EXTT17=
EXTT18=
PLAYORDER=
